Coordinates
version=1
nRows=19
nColumns=36
inDegrees=yes

Units are S.I. units (second, meters, Newtons, ...)
If the header above contains a line with 'inDegrees', this indicates whether rotational values are in degrees (yes) or radians (no).

endheader
time	pelvis_tilt	pelvis_list	pelvis_rotation	pelvis_tx	pelvis_ty	pelvis_tz	hip_flexion_r	hip_adduction_r	hip_rotation_r	knee_angle_r	knee_angle_r_beta	ankle_angle_r	subtalar_angle_r	mtp_angle_r	hip_flexion_l	hip_adduction_l	hip_rotation_l	knee_angle_l	knee_angle_l_beta	ankle_angle_l	subtalar_angle_l	mtp_angle_l	lumbar_extension	lumbar_bending	lumbar_rotation	arm_flex_r	arm_add_r	arm_rot_r	elbow_flex_r	pro_sup_r	arm_flex_l	arm_add_l	arm_rot_l	elbow_flex_l	pro_sup_l
      1.58000000	    -22.65770497	      0.03853492	      0.90369776	     -0.27690975	      0.66850063	     -0.63782884	     83.18333843	    -16.90399757	      3.13786472	     93.57315959	      1.63315973	     33.14908034	     -5.67407611	     -7.36235165	     83.62062214	     -7.53830376	      4.71731833	     93.16667845	      1.62606529	     32.08778833	     -5.96200059	     -7.36235165	    -32.23856112	     -3.09160115	      0.33876628	    112.81136822	    -25.93351781	     29.13363021	    104.82663021	     86.93938958	    102.47797955	    -29.61100878	     33.59197852	    109.11459703	    109.80695455
      1.59000000	    -22.63165619	     -0.23450252	      1.07494369	     -0.27316911	      0.67852244	     -0.63804263	     81.49029581	    -17.08629306	      2.17025351	     91.83984768	      1.60290773	     32.90818301	     -5.58029304	     -7.36431413	     82.33266625	     -7.75116334	      4.55435294	     91.52204743	      1.59736107	     31.60055101	     -5.59423385	     -7.36431413	    -31.07374129	     -2.84559794	      0.22327951	    114.01144950	    -26.92838165	     30.44992501	    105.61631162	     87.05850930	    104.21314550	    -30.13892758	     34.53795257	    109.72646101	    109.97796954
      1.60000000	    -22.48167584	     -0.52594661	      1.35147246	     -0.26914422	      0.68930103	     -0.63838692	     79.55203406	    -17.35916107	      1.09790058	     89.98309860	      1.57050134	     32.59801040	     -5.50495254	     -7.36589232	     80.83046331	     -7.89250073	      4.35628987	     89.73518792	      1.56617448	     31.10316979	     -5.23135527	     -7.36589232	    -29.93134275	     -2.53112198	      0.03507077	    115.08717209	    -28.03172919	     31.95446514	    106.41411992	     87.16239843	    105.86525994	    -30.77615047	     35.64622742	    110.34775488	    110.19642186
      1.61000000	    -22.19499544	     -0.76999359	      1.60975775	     -0.26494678	      0.70072728	     -0.63857815	     77.43736543	    -17.56494763	      0.04844864	     88.02531192	      1.53633152	     32.20655391	     -5.57989579	     -7.36843442	     79.08033410	     -8.05859311	      4.10611136	     87.81728150	      1.53270070	     30.54879413	     -4.86803715	     -7.36843442	    -28.88679397	     -2.29426803	     -0.17788731	    116.30349580	    -29.29137277	     33.85101839	    107.02637998	     87.19761619	    107.90994241	    -31.67496956	     37.57614827	    110.89909428	    110.51931207
      1.62000000	    -21.84813482	     -0.94198041	      1.83371982	     -0.26048707	      0.71298940	     -0.63847875	     75.17986992	    -17.66534165	     -0.93752315	     85.89973872	      1.49923327	     31.69204721	     -5.66708819	     -7.37115660	     77.10557136	     -8.25745804	      3.77172944	     85.68505816	      1.49548638	     29.95981078	     -4.46342386	     -7.37115660	    -27.81758328	     -2.21283213	     -0.51638616	    117.03015382	    -30.53717156	     35.52946138	    107.82531312	     87.17795718	    109.96575892	    -32.68806444	     39.66644581	    111.60317737	    110.76572373
      1.63000000	    -21.43469273	     -1.18772881	      2.07514727	     -0.25573219	      0.72608620	     -0.63841382	     72.68576052	    -17.72087588	     -2.07087394	     83.54832554	      1.45819337	     31.08178754	     -5.65232037	     -7.37299256	     74.97976702	     -8.47726659	      3.49323979	     83.37858413	      1.45523082	     29.25040360	     -4.02148676	     -7.37299256	    -26.75054638	     -2.05224431	     -0.83920390	    117.40359704	    -31.88599054	     37.06974360	    108.83397674	     87.18854889	    111.72843303	    -33.69398693	     41.44544266	    112.47932572	    110.90836732
      1.64000000	    -20.98579902	     -1.47035906	      2.37735954	     -0.25056795	      0.73979790	     -0.63859633	     70.03098847	    -17.81791385	     -3.34071518	     81.03622034	      1.41434886	     30.40666872	     -5.58935531	     -7.37441040	     72.75263145	     -8.65418417	      3.24776916	     80.93854738	      1.41264414	     28.48464732	     -3.62260398	     -7.37441040	    -25.48011150	     -1.81943095	     -1.15834620	    117.23434091	    -33.27062288	     38.68023608	    109.78576077	     87.18677040	    112.81207668	    -34.64620161	     43.00635363	    113.32288453	    110.98539364
      1.65000000	    -20.43130972	     -1.86333501	      2.75471208	     -0.24509744	      0.75438048	     -0.63886511	     67.08486017	    -17.85853608	     -4.82703468	     78.30481361	      1.36667682	     29.47153051	     -5.62803504	     -7.37637143	     70.39461816	     -8.83038440	      3.09839415	     78.35701619	      1.36758792	     27.40830522	     -3.30294875	     -7.37637143	    -24.32177344	     -1.49114302	     -1.46082126	    117.02936158	    -34.94478819	     40.50204662	    110.91261726	     87.08406982	    113.75965877	    -35.70922758	     44.70889960	    114.40305636	    110.87774263
      1.66000000	    -19.85261389	     -2.26566269	      3.03574075	     -0.23932430	      0.76979298	     -0.63894964	     64.01651116	    -17.65885741	     -6.27592195	     75.30180448	      1.31426442	     28.16464992	     -5.91134703	     -7.37912818	     67.91533725	     -9.10481509	      2.88556690	     75.58547302	      1.31921537	     25.98346625	     -3.19355567	     -7.37912818	    -23.02305877	     -1.19352678	     -1.59085385	    116.47711749	    -36.78626568	     42.55830001	    112.05858674	     86.82132675	    114.04111838	    -36.78399407	     46.28768392	    115.62996197	    110.60840943
      1.67000000	    -19.46349820	     -2.49751527	      3.11507558	     -0.23307454	      0.78566673	     -0.63853240	     61.19157511	    -17.30331015	     -7.48353812	     72.15534778	      1.25934839	     27.10036013	     -5.59983752	     -7.38011993	     65.42476027	     -9.46904703	      2.44681214	     72.59912056	      1.26709369	     24.82798073	     -2.74206422	     -7.38011993	    -21.19732520	     -1.18358425	     -1.63746906	    114.93676406	    -38.50807465	     44.30451392	    113.12766263	     86.82602263	    113.10951053	    -38.04060845	     47.36292080	    117.01064746	    110.57161432
      1.68000000	    -18.97571275	     -2.87885011	      3.19793174	     -0.22659815	      0.80261205	     -0.63815181	     58.08647354	    -16.74898390	     -8.82302887	     68.66010174	      1.19834484	     25.51241985	     -5.34561051	     -7.38116078	     62.81341509	     -9.89300955	      2.15495497	     69.43051615	      1.21179111	     23.10670201	     -2.31497235	     -7.38116078	    -19.50956202	     -0.96709874	     -1.51718526	    113.41073602	    -40.40147320	     46.31000471	    114.41460575	     86.85752564	    111.90755004	    -39.46939755	     48.51303969	    118.66017823	    110.54327706
      1.69000000	    -18.26817058	     -3.56903342	      3.37957146	     -0.22008242	      0.82096259	     -0.63820355	     54.49670185	    -15.91593716	    -10.54137812	     64.60789831	      1.12762055	     21.83104347	     -7.01717564	     -7.38577496	     60.04856466	    -10.38848109	      2.15784575	     66.02868867	      1.15241802	     19.53421457	     -3.50150530	     -7.38577496	    -18.19959462	     -0.20364098	     -1.05854362	    112.94126503	    -42.74258175	     49.60036107	    115.84764618	     86.38418092	    109.79124769	    -40.88749286	     49.03058882	    120.46909795	    109.84948121
      1.70000000	    -17.45531640	     -3.80008782	      3.50469329	     -0.21284458	      0.84061550	     -0.63847284	     50.81972261	    -15.32152466	    -11.72463527	     60.42798523	      1.05466730	     19.33251957	     -6.26036938	     -7.38777485	     56.68543504	    -10.65907564	      1.63609037	     62.16792259	      1.08503494	     17.18755566	     -3.02752922	     -7.38777485	    -16.77160432	     -0.03565194	     -0.92716602	    110.44970556	    -44.55234045	     51.51358454	    117.21626876	     86.21849506	    107.10067089	    -42.52181839	     50.18700852	    122.16901326	    109.71887236
      1.71000000	    -16.66662838	     -4.11952897	      3.62872687	     -0.20535661	      0.86141169	     -0.63907133	     46.95157829	    -14.50347834	    -12.95274927	     55.61938774	      0.97074144	     15.51933133	     -6.72046569	     -7.39273055	     53.16395168	    -10.91980096	      1.06093323	     57.78943204	      1.00861586	     13.61935786	     -3.80175280	     -7.39273055	    -15.24745045	      0.34552771	     -0.72522567	    107.42533312	    -46.16296591	     53.38358057	    118.49180344	     85.46802153	    102.95223647	    -44.12792091	     50.58078457	    123.82948246	    109.12452721
      1.72000000	    -15.84799681	     -4.45574570	      3.69313387	     -0.19729730	      0.88345447	     -0.63960896	     42.79795488	    -13.48509547	    -14.14845869	     50.20927094	      0.87631709	     11.67402480	     -6.25627700	     -7.39621640	     49.30336305	    -11.28023256	      0.37047592	     52.90854975	      0.92342840	     10.19902395	     -3.54991550	     -7.39621640	    -13.67376658	      0.70710245	     -0.49578695	    103.12577194	    -47.55685338	     54.48763320	    119.71798537	     84.93556158	     97.73926967	    -45.62376651	     50.69582161	    125.22705879	    108.77436055
      1.73000000	    -15.14257369	     -4.82918237	      3.69138414	     -0.18874716	      0.90661452	     -0.64003966	     38.48453366	    -12.15643924	    -15.13031718	     44.00508906	      0.76803369	      6.79016436	     -6.03694529	     -7.40020243	     45.24638594	    -11.74666736	     -0.56453794	     47.35742244	      0.82654295	      6.04198152	     -3.21485257	     -7.40020243	    -11.90749241	      1.12468419	     -0.29064546	     97.53368965	    -48.52757192	     54.73590771	    120.75985065	     84.30511206	     90.74931758	    -46.94604321	     49.61408688	    126.43672136	    108.29096301
      1.74000000	    -14.33466649	     -5.14489018	      3.61399952	     -0.17978093	      0.93124090	     -0.64038569	     33.76849452	    -10.63535675	    -15.93897920	     36.92071966	      0.64438812	      0.95062294	     -5.27603840	     -7.40395905	     40.60090392	    -12.26664521	     -1.98850120	     40.90232542	      0.71388025	      1.20021771	     -2.12254696	     -7.40395905	    -10.40277030	      1.46955151	     -0.13226643	     90.93538431	    -49.09343723	     54.11532864	    121.51640462	     83.82393988	     82.72567939	    -48.02353696	     47.58360658	    127.35317054	    107.74067496
      1.75000000	    -13.39073135	     -5.34985382	      3.54580232	     -0.17049592	      0.95710104	     -0.64085237	     28.64673601	     -9.01427513	    -16.31577686	     28.93301286	      0.50497634	     -6.65286251	     -4.55974341	     -7.41068934	     35.38304945	    -12.61086121	     -3.83451383	     33.52546794	      0.58512980	     -4.90414191	     -0.71534012	     -7.41068934	     -9.18792862	      1.78482419	     -0.42928033	     83.80771929	    -48.54764179	     53.06039185	    121.52685005	     83.34376467	     73.19055332	    -49.26990325	     44.11129793	    128.25375149	    106.90819692
      1.76000000	    -12.32359242	     -5.43956146	      3.47699600	     -0.16108121	      0.98372071	     -0.64138579	     23.17667701	     -7.44407388	    -16.31843311	     19.98208842	      0.34875323	    -16.06442092	     -2.69401587	     -7.40690749	     29.77140939	    -12.77588669	     -6.23632191	     25.27866942	      0.44119601	    -12.51946371	      1.76673329	     -7.40690749	     -8.31231304	      1.86339869	     -0.35947016	     75.84520111	    -48.25281680	     50.90382783	    121.46994538	     84.18960413	     63.22602315	    -49.09733386	     39.97037087	    128.18846034	    106.97666876
